<svg width="1090" height="172" viewBox="0 0 1090 172" fill="none" xmlns="http://www.w3.org/2000/svg">
<path d="M165.302 172H104.487L0.453613 0.293457H60.8809L165.302 172ZM0.453613 172V16.5972L50.2705 98.2451V172H0.453613ZM165.302 0.293457V155.696L115.485 73.6602V0.293457H165.302ZM360.041 137.71L325.751 172H281.628V137.71H302.849V0.293457H360.041V137.71ZM251.479 137.71H272.57V172H228.576L194.157 137.71V0.293457H251.479V137.71ZM425.515 46.6167H485.036V172H425.515V46.6167ZM380.744 0.293457H529.807V37.6885H380.744V0.293457ZM551.674 172V0.293457H608.867V172H551.674ZM617.924 34.583V0.293457H683.269L717.688 34.583V86.082L691.291 112.479L689.479 108.855L635.781 115.972L637.851 120.501H617.924V87.2466H660.883V34.583H617.924ZM723.51 172H662.436L637.851 120.501H683.269L691.291 112.479L723.51 172ZM801.147 101.48V172H743.955V0.293457H801.147V68.355H855.881V101.48H801.147ZM810.205 33.5479V0.293457H899.616V49.981H845.788V33.5479H810.205ZM810.205 172V137.71H842.424V120.501H899.616V172H810.205Z" fill="white"/>
<path d="M1035.74 77.9302L1005.2 33.2891L1025.26 0.293457H1086.59L1035.74 77.9302ZM908.674 172L963.408 92.0342L994.074 138.616L974.018 172H908.674ZM1089.05 172H1026.68L912.167 0.293457H973.889L1089.05 172Z" fill="#A5FF01"/>
</svg>
