<?xml version="1.0" ?>
<!-- Uploaded to: SVG Repo, www.svgrepo.com, Generator: SVG Repo Mixer Tools -->
<svg width="800px" height="800px" viewBox="0 0 128 128" version="1.1" xml:space="preserve" xmlns="http://www.w3.org/2000/svg" xmlns:xlink="http://www.w3.org/1999/xlink">
<style type="text/css">
	.st0{fill:#69A401;}
	.st1{fill:#EFE691;}
	.st2{fill:#B20000;}
	.st3{fill:#DF1801;}
	.st4{fill:#F40603;}
	.st5{fill:#FFEEEE;}
	.st6{fill:#847B3C;}
	.st7{fill:#CEB600;}
	.st8{fill:#F8CD02;}
	.st9{fill:#F7C800;}
	.st10{fill:#F6E8B9;}
	.st11{fill:#F6E9CA;}
	.st12{fill:#CF8A11;}
	.st13{fill:#286F0D;}
	.st14{fill:#63271D;}
	.st15{fill:#EB8102;}
	.st16{fill:#E37303;}
	.st17{fill:#D97102;}
	.st18{fill:#BF6302;}
	.st19{fill:#EA9735;}
	.st20{fill:#3E1A01;}
	.st21{fill:#C96A0A;}
	.st22{fill:#CE2335;}
	.st23{fill:#C0242D;}
	.st24{fill:#BA1A23;}
	.st25{fill:#F9DCC7;}
	.st26{fill:#DBE2CE;}
	.st27{fill:#7D4B12;}
	.st28{fill:#75480C;}
	.st29{fill:#66410C;}
	.st30{fill:#88550D;}
	.st31{fill:#FFFEE9;}
	.st32{fill:#9B9F1A;}
	.st33{fill:#F6E177;}
	.st34{fill:#443A00;}
	.st35{fill:#305209;}
	.st36{fill:#7F7C04;}
	.st37{fill:#BAB424;}
	.st38{fill:#F7CF43;}
	.st39{fill:#DE940E;}
	.st40{fill:#5F570A;}
	.st41{fill:#175424;}
	.st42{fill:#215B25;}
	.st43{fill:#1B5020;}
	.st44{fill:#C0F9C0;}
	.st45{fill:#F3DA78;}
	.st46{fill:#BC441C;}
	.st47{fill:#148E2E;}
	.st48{fill:#283767;}
	.st49{fill:#425285;}
	.st50{fill:#CFDFFF;}
	.st51{fill:#1F2C55;}
	.st52{fill:#776220;}
	.st53{fill:#90236B;}
	.st54{fill:#5D1A47;}
	.st55{fill:#99499A;}
	.st56{fill:#FCCAFA;}
	.st57{fill:#917C31;}
	.st58{fill:#F4C435;}
	.st59{fill:#F1BC02;}
	.st60{fill:#F0B102;}
	.st61{fill:#F1F7BA;}
	.st62{fill:#E3DCB9;}
	.st63{fill:#BD6800;}
	.st64{fill:#E19704;}
	.st65{fill:#B2CA2B;}
	.st66{fill:#AFC20F;}
	.st67{fill:#B9CB00;}
	.st68{fill:#E5F392;}
	.st69{fill:#F78202;}
	.st70{fill:#F79613;}
	.st71{fill:#331F07;}
	.st72{fill:#402B16;}
	.st73{fill:#669404;}
	.st74{fill:#F58E13;}
	.st75{fill:#D87117;}
	.st76{fill:#216604;}
	.st77{fill:#286D08;}
	.st78{fill:#C8C625;}
	.st79{fill:#2C441F;}
	.st80{fill:#F1E6BF;}
	.st81{fill:#F2BE2E;}
	.st82{fill:#BF8F33;}
	.st83{fill:#568804;}
	.st84{fill:#669614;}
	.st85{fill:#688E0C;}
	.st86{fill:#4C7005;}
	.st87{fill:#A0CA49;}
	.st88{fill:#99BD70;}
	.st89{fill:#78AA25;}
	.st90{fill:#4B7C23;}
	.st91{fill:#EADBC8;}
	.st92{fill:#F0D5B0;}
	.st93{fill:#DF2B2B;}
	.st94{fill:#D1262C;}
	.st95{fill:#B7252C;}
	.st96{fill:#46670C;}
	.st97{fill:#F49D5B;}
	.st98{fill:#F57A55;}
	.st99{fill:#F1C3A7;}
	.st100{fill:#CC0917;}
	.st101{fill:#DC1035;}
	.st102{fill:#9BAC0F;}
	.st103{fill:#667A1D;}
	.st104{fill:#7A9D18;}
	.st105{fill:#F6F7E6;}
	.st106{fill:#F0194D;}
	.st107{fill:#362420;}
	.st108{fill:#530618;}
	.st109{fill:#44041A;}
	.st110{fill:#490419;}
	.st111{fill:#F8A459;}
	.st112{fill:#871B22;}
	.st113{fill:#600613;}
	.st114{fill:#F8C790;}
	.st115{fill:#447832;}
	.st116{fill:#7C473D;}
	.st117{fill:#441432;}
	.st118{fill:#51163F;}
	.st119{fill:#5B1A41;}
	.st120{fill:#FCEBF9;}
	.st121{fill:#ECE5CE;}
	.st122{fill:#BC3E2C;}
	.st123{fill:#A60F26;}
	.st124{fill:#C61632;}
	.st125{fill:#BD1331;}
	.st126{fill:#F8B772;}
	.st127{fill:#F7DDAC;}
	.st128{fill:#850E11;}
	.st129{fill:#191200;}
	.st130{fill:#553D2D;}
	.st131{fill:#F9E2D2;}
	.st132{fill:#CA8937;}
	.st133{fill:#462D16;}
	.st134{fill:#6D8916;}
	.st135{fill:#96B54E;}
	.st136{fill:#E3E2DE;}
	.st137{fill:#261811;}
	.st138{fill:#525C11;}
	.st139{fill:#14581E;}
	.st140{fill:#3D7712;}
	.st141{fill:#9BC148;}
	.st142{fill:#E22434;}
	.st143{fill:#C6DD9E;}
	.st144{fill:#F89A07;}
	.st145{fill:#F7A410;}
	.st146{fill:#F8AB19;}
	.st147{fill:#F7B81C;}
	.st148{fill:#E5870A;}
	.st149{fill:#97A304;}
	.st150{fill:#A88C5C;}
	.st151{fill:#ADC21E;}
	.st152{fill:#A3BA0B;}
	.st153{fill:#8D9E08;}
	.st154{fill:#E0DAB9;}
	.st155{fill:#684219;}
	.st156{fill:#777F05;}
	.st157{fill:#F2E9C4;}
	.st158{fill:#CBB465;}
	.st159{fill:#FFF5CA;}
	.st160{fill:#E52828;}
	.st161{fill:#F87302;}
	.st162{fill:#FF7B22;}
	.st163{fill:#FC7F10;}
	.st164{fill:#F8A200;}
	.st165{fill:#F8DC91;}
	.st166{fill:#FFFFFF;}
	.st167{fill:#F5D7D5;}
	.st168{fill:#EDA07A;}
	.st169{fill:#FCBEBE;}
	.st170{fill:#EAD991;}
	.st171{fill:#582612;}
</style>
<g id="_x33_0_Mulberry"/>
<g id="_x32_9_Star_Fruit"/>
<g id="_x32_8_Apricot"/>
<g id="_x32_7_Litchi"/>
<g id="_x32_6_Kiwi"/>
<g id="_x32_5_Jackfruit"/>
<g id="_x32_4_Avacado"/>
<g id="_x32_3_Blueberry"/>
<g id="_x32_2_Purple_Grapes"/>
<g id="_x32_1_Melon"/>
<g id="_x32_0_Green_Grapes"/>
<g id="_x31_9_Papaya"/>
<g id="_x31_8_Pineapple"/>
<g id="_x31_7_Banana"/>
<g id="_x31_6_Tender_Coconut"/>
<g id="_x31_5_Strawberry"/>
<g id="_x31_4_Dragon_Fruit"/>
<g id="_x31_3_Plum"/>
<g id="_x31_2_Fig"/>
<g id="_x31_1_Peach"/>
<g id="_x31_0_Cherry"/>
<g id="_x30_9_Sapota"/>
<g id="_x30_8_Custard_Apple"/>
<g id="_x30_7_Watermelon"/>
<g id="_x30_6_Mango"/>
<g id="_x30_5_Pear"/>
<g id="_x30_4_Guava"/>
<g id="_x30_3_Pomegranate">
<g id="XMLID_125_">
<g id="XMLID_166_">
<path class="st93" d="M64.462,37.511c-3.69-3.839-8.33-6.937-14.106-8.253c0.933-4.364,2.593-8.564,4.942-12.417     l4.207-6.901l-14.833,7.325L38.418,2l-5.765,14.994L17.268,9.94l4.081,6.607c2.403,3.89,4.102,8.14,5.055,12.56     c-6.111,1.215-10.983,4.408-14.824,8.405C-3.419,53.116-0.292,78.309,17.374,90.887c8.677,6.178,17.521,10.247,19.65,11.19     c0.314,0.139,0.651,0.21,0.996,0.21s0.681-0.071,0.996-0.21c2.13-0.944,10.973-5.012,19.65-11.19     C76.333,78.309,79.46,53.116,64.462,37.511z" id="XMLID_169_"/>
<path class="st94" d="M24.363,22.493l11.083,5.306l2.972-16.837l3.797,12.319l13.373-6.916     c0.82-2.051-1.16,1.904,0,0l3.915-6.424l-14.833,7.325L38.419,2l-5.765,14.994L17.268,9.94l4.081,6.607     C22.525,18.45,23.529,20.44,24.363,22.493z" id="XMLID_964_"/>
<path class="st94" d="M29.774,95.021C12.108,82.442,8.981,57.25,23.979,41.644     c1.794-1.867,3.813-3.558,6.078-4.955c5.446-3.358,7.045-10.561,3.692-16.009l0,0l-2.743-4.441L17.268,9.94l4.081,6.607     c2.403,3.89,4.102,8.14,5.055,12.56c-6.111,1.215-10.983,4.408-14.824,8.405C-3.419,53.116-0.292,78.309,17.374,90.887     c8.677,6.178,17.521,10.247,19.65,11.19c0.314,0.139,0.651,0.21,0.996,0.21s0.681-0.071,0.996-0.21     c0.277-0.123,0.673-0.301,1.162-0.527C37.008,99.785,33.381,97.588,29.774,95.021z" id="XMLID_181_"/>
<path class="st95" d="M23.574,92.954C5.908,80.375,2.781,55.183,17.779,39.578     c1.794-1.867,3.813-3.558,6.078-4.955c5.446-3.358,7.045-10.561,3.692-16.009l0,0l-3.412-5.524l-6.869-3.15l4.081,6.607     c2.403,3.89,4.102,8.14,5.055,12.56c-6.111,1.215-10.983,4.408-14.824,8.405C-3.419,53.116-0.292,78.309,17.374,90.887     c8.677,6.178,17.521,10.247,19.65,11.19c0.314,0.139,0.651,0.21,0.996,0.21c0.315,0,0.621-0.067,0.912-0.183     C35.039,100.155,29.277,97.014,23.574,92.954z" id="XMLID_754_"/>
<path class="st25" d="M23.11,82.43c-0.13,0-0.26-0.02-0.39-0.04c-0.13-0.03-0.26-0.07-0.38-0.12c-0.12-0.05-0.23-0.11-0.34-0.18     c-0.11-0.07-0.21-0.16-0.31-0.25c-0.37-0.37-0.58-0.89-0.58-1.41c0-0.13,0.01-0.26,0.04-0.39c0.02-0.13,0.06-0.26,0.11-0.38     c0.05-0.12,0.11-0.23,0.19-0.34c0.07-0.11,0.15-0.21,0.24-0.31c0.1-0.09,0.2-0.17,0.31-0.24c0.11-0.08,0.22-0.14,0.34-0.19     c0.12-0.05,0.25-0.09,0.38-0.11c0.65-0.13,1.34,0.08,1.8,0.54c0.09,0.1,0.18,0.2,0.25,0.31c0.07,0.11,0.13,0.22,0.18,0.34     c0.05,0.12,0.09,0.25,0.12,0.38c0.02,0.13,0.04,0.26,0.04,0.39c0,0.52-0.22,1.04-0.59,1.41C24.15,82.21,23.64,82.43,23.11,82.43z     "/>
<path class="st25" d="M18.398,76.08c-0.807,0-1.566-0.491-1.87-1.29c-3.725-9.801-3.23-20.657,1.357-29.786     c0.495-0.987,1.697-1.386,2.685-0.889c0.987,0.496,1.385,1.698,0.889,2.685c-4.085,8.129-4.52,17.813-1.192,26.569     c0.392,1.033-0.126,2.188-1.159,2.58C18.875,76.038,18.634,76.08,18.398,76.08z"/>
</g>
<g id="XMLID_126_">
<path class="st159" d="M114.627,97.478l4.752,12.399l-4.327-1.881c-3.686-2.236-5.78-3.817-9.969-4.703     c-1.151,5.686-4.177,10.219-7.965,13.794c-14.788,13.956-38.662,11.046-50.582-5.392c-5.855-8.074-9.71-16.303-10.605-18.284     c-0.132-0.293-0.199-0.606-0.199-0.926c0-0.01,0.003-0.02,0.003-0.03H126L114.627,97.478z" id="XMLID_165_"/>
<path class="st95" d="M115.051,103.996c-3.687-2.236-5.78-3.817-9.969-4.703     c-1.151,5.686-4.177,10.219-7.965,13.794c-14.788,13.956-38.662,11.046-50.582-5.392c-4.201-5.793-7.364-11.653-9.151-15.24     h-1.649c0,0.01-0.003,0.02-0.003,0.03c0,0.32,0.067,0.634,0.199,0.926c0.894,1.982,4.75,10.21,10.605,18.284     c11.92,16.438,35.794,19.348,50.582,5.392c3.787-3.574,6.814-8.107,7.965-13.794c4.188,0.886,6.282,2.467,9.969,4.703     l4.327,1.881l-1.839-4.799L115.051,103.996z" id="XMLID_185_"/>
<path class="st95" d="M126,92.454h-7.187l-7.187,5.024l3.424,10.518c0.963,0.574-1.164-0.706,0,0l4.327,1.881     l-4.752-12.399L126,92.454z" id="XMLID_204_"/>
<g id="XMLID_139_">
<g id="XMLID_616_">
<g id="XMLID_644_">
<path class="st160" d="M74.334,112.019c0.621,0,1.233-0.252,1.665-0.691c0.442-0.429,0.686-1.036,0.686-1.652        c0-0.607-0.244-1.213-0.686-1.643c-0.875-0.868-2.446-0.868-3.32,0c-0.442,0.43-0.696,1.036-0.696,1.643        c0,0.616,0.254,1.223,0.696,1.652C73.112,111.766,73.724,112.019,74.334,112.019z" id="XMLID_646_"/>
</g>
<g id="XMLID_641_">
<path class="st160" d="M64.939,112.009c0.611,0,1.223-0.243,1.655-0.681c0.442-0.429,0.686-1.036,0.686-1.652        c0-0.607-0.244-1.213-0.686-1.643c-0.875-0.868-2.455-0.868-3.32,0c-0.442,0.43-0.696,1.036-0.696,1.643        c0,0.616,0.254,1.213,0.687,1.652C63.706,111.766,64.318,112.009,64.939,112.009z" id="XMLID_642_"/>
</g>
<g id="XMLID_639_">
<path class="st160" d="M78.097,120.411c0.621,0,1.233-0.243,1.665-0.681c0.442-0.429,0.696-1.036,0.696-1.652        c0-0.607-0.254-1.213-0.696-1.643c-0.875-0.868-2.455-0.868-3.32,0c-0.442,0.43-0.696,1.036-0.696,1.643        c0,0.616,0.254,1.223,0.696,1.652C76.874,120.168,77.486,120.411,78.097,120.411z" id="XMLID_640_"/>
</g>
<g id="XMLID_637_">
<path class="st160" d="M83.74,112.009c0.621,0,1.233-0.243,1.665-0.681c0.442-0.429,0.686-1.036,0.686-1.652        c0-0.616-0.244-1.213-0.686-1.643c-0.865-0.868-2.455-0.868-3.32,0c-0.442,0.43-0.696,1.036-0.696,1.643        c0,0.616,0.254,1.223,0.696,1.652C82.517,111.766,83.129,112.009,83.74,112.009z" id="XMLID_638_"/>
</g>
<g id="XMLID_635_">
<path class="st160" d="M93.146,112.009c0.62,0,1.232-0.243,1.665-0.681c0.442-0.429,0.687-1.036,0.687-1.652        c0-0.607-0.245-1.213-0.687-1.643c-0.875-0.868-2.455-0.868-3.32,0c-0.442,0.43-0.696,1.036-0.696,1.643        c0,0.616,0.254,1.223,0.696,1.652C91.923,111.766,92.534,112.009,93.146,112.009z" id="XMLID_636_"/>
</g>
<g id="XMLID_632_">
<path class="st160" d="M97.849,102.675c0.62,0,1.232-0.243,1.665-0.681c0.442-0.429,0.687-1.036,0.687-1.652        c0-0.607-0.245-1.213-0.687-1.643c-0.875-0.868-2.446-0.868-3.32,0c-0.442,0.43-0.696,1.036-0.696,1.643        c0,0.616,0.254,1.223,0.696,1.652C96.626,102.432,97.237,102.675,97.849,102.675z" id="XMLID_634_"/>
</g>
<g id="XMLID_630_">
<path class="st160" d="M88.443,102.675c0.62,0,1.232-0.243,1.665-0.681c0.442-0.429,0.687-1.036,0.687-1.643        c0-0.616-0.245-1.222-0.687-1.652c-0.875-0.868-2.446-0.868-3.32,0c-0.442,0.43-0.686,1.036-0.686,1.652        c0,0.607,0.244,1.214,0.686,1.643C87.22,102.432,87.831,102.675,88.443,102.675z" id="XMLID_631_"/>
</g>
<g id="XMLID_627_">
<path class="st160" d="M79.037,102.684c0.621,0,1.233-0.252,1.665-0.691c0.442-0.429,0.696-1.036,0.696-1.643        c0-0.616-0.254-1.222-0.696-1.652c-0.875-0.868-2.455-0.868-3.32,0c-0.442,0.43-0.696,1.036-0.696,1.652        c0,0.607,0.254,1.214,0.696,1.643C77.815,102.432,78.426,102.684,79.037,102.684z" id="XMLID_629_"/>
</g>
<g id="XMLID_625_">
<path class="st160" d="M69.632,102.684c0.621,0,1.233-0.252,1.665-0.691c0.442-0.429,0.686-1.036,0.686-1.652        c0-0.607-0.244-1.213-0.686-1.643c-0.875-0.868-2.446-0.877-3.32,0c-0.442,0.43-0.696,1.036-0.696,1.643        c0,0.616,0.254,1.223,0.696,1.652C68.409,102.432,69.021,102.684,69.632,102.684z" id="XMLID_626_"/>
</g>
<g id="XMLID_623_">
<path class="st160" d="M60.226,102.675c0.621,0,1.233-0.243,1.665-0.681c0.442-0.429,0.686-1.036,0.686-1.643        c0-0.616-0.244-1.222-0.686-1.652c-0.875-0.868-2.446-0.868-3.32,0c-0.442,0.43-0.696,1.036-0.696,1.652        c0,0.607,0.254,1.214,0.696,1.643C59.004,102.432,59.615,102.675,60.226,102.675z" id="XMLID_624_"/>
</g>
<g id="XMLID_621_">
<path class="st160" d="M55.533,112.009c0.611,0,1.223-0.243,1.655-0.681c0.442-0.429,0.686-1.036,0.686-1.652        c0-0.607-0.244-1.213-0.686-1.643c-0.875-0.868-2.455-0.868-3.32,0c-0.442,0.43-0.696,1.036-0.696,1.643        c0,0.616,0.254,1.213,0.687,1.652C54.301,111.766,54.913,112.009,55.533,112.009z" id="XMLID_622_"/>
</g>
<g id="XMLID_619_">
<path class="st160" d="M50.821,102.675c0.621,0,1.233-0.243,1.665-0.681c0.442-0.429,0.686-1.036,0.686-1.643        c0-0.616-0.244-1.222-0.686-1.652c-0.875-0.868-2.446-0.868-3.32,0c-0.442,0.43-0.696,1.036-0.696,1.652        c0,0.607,0.254,1.214,0.696,1.643C49.598,102.432,50.21,102.675,50.821,102.675z" id="XMLID_620_"/>
</g>
<g id="XMLID_617_">
<path class="st160" d="M68.691,120.411c0.621,0,1.233-0.243,1.665-0.681c0.442-0.429,0.696-1.036,0.696-1.652        c0-0.607-0.254-1.213-0.696-1.643c-0.875-0.868-2.455-0.868-3.32,0c-0.442,0.43-0.696,1.036-0.696,1.643        c0,0.616,0.254,1.223,0.696,1.652C67.469,120.168,68.08,120.411,68.691,120.411z" id="XMLID_618_"/>
</g>
</g>
</g>
</g>
</g>
</g>
<g id="_x30_2_Orange"/>
<g id="_x30_1_Apple"/>
</svg>