<?xml version="1.0" ?>
<!DOCTYPE svg  PUBLIC '-//W3C//DTD SVG 1.1//EN'  'http://www.w3.org/Graphics/SVG/1.1/DTD/svg11.dtd'>
<!-- Uploaded to: SVG Repo, www.svgrepo.com, Generator: SVG Repo Mixer Tools -->
<svg fill="#000000" width="800px" height="800px" viewBox="0 0 64 64" style="fill-rule:evenodd;clip-rule:evenodd;stroke-linejoin:round;stroke-miterlimit:2;" version="1.1" xml:space="preserve" xmlns="http://www.w3.org/2000/svg" xmlns:serif="http://www.serif.com/" xmlns:xlink="http://www.w3.org/1999/xlink">
<g transform="matrix(1,0,0,1,-384,-384)">
<g id="Icon">
<path d="M420.112,387.26L417.071,387.001C408.73,387.001 402.042,392.716 402.042,399.631C402.042,400.017 402.077,400.427 402.084,400.505C402.103,400.708 402.166,400.866 402.252,400.988L402.561,401.254L402.487,401.23L415.077,410.524C415.402,410.764 415.841,410.784 416.187,410.575L431.585,401.282L431.643,401.244C431.757,401.165 431.849,401.065 431.918,400.952C431.988,400.84 432.036,400.713 432.057,400.576L432.065,400.507C432.089,400.217 432.101,399.925 432.101,399.631C432.101,393.58 426.98,388.448 420.112,387.26Z" style="fill:rgb(248,172,58);"/>
<path d="M423.992,396.127L424,395.966L423.992,395.875C423.98,395.779 423.954,395.687 423.916,395.6L423.841,395.46L423.785,395.38C423.726,395.306 423.657,395.24 423.578,395.184L423.499,395.133C423.454,395.107 423.406,395.084 423.356,395.066L412.369,390.778C411.864,390.581 411.293,390.823 411.083,391.323L409.165,395.899C409.094,396.067 409.071,396.251 409.098,396.431L411.402,412.095C411.452,412.435 411.672,412.724 411.986,412.864L420.25,416.537C420.541,416.666 420.875,416.649 421.151,416.492C421.427,416.335 421.612,416.057 421.65,415.741L423.992,396.127Z" style="fill:rgb(143,244,103);"/>
<path d="M404.557,400.509C404.502,400.923 404.71,401.327 405.078,401.523L413.415,405.961C413.784,406.158 414.235,406.104 414.548,405.827C415.797,404.72 416.585,403.104 416.585,401.305C416.585,397.971 413.879,395.265 410.545,395.265C407.481,395.265 404.947,397.552 404.557,400.509Z" style="fill:rgb(240,104,45);"/>
<path d="M427.805,443.886C428.069,443.892 428.334,443.793 428.534,443.592C428.924,443.201 428.922,442.567 428.531,442.178L417.269,430.971C417.075,430.778 416.811,430.673 416.538,430.68C416.265,430.687 416.006,430.806 415.823,431.009L405.666,442.215C405.4,442.508 405.333,442.93 405.493,443.292C405.653,443.654 406.012,443.887 406.407,443.887L427.778,443.887L427.805,443.886Z" style="fill:rgb(248,172,58);"/>
<path d="M418.093,409.208C418.093,409.029 418.045,408.853 417.954,408.699C414.621,403.061 409.187,399.426 403.081,399.426C402.803,399.426 402.536,399.542 402.347,399.747C402.158,399.951 402.063,400.226 402.084,400.504L405.41,442.965C405.451,443.485 405.885,443.887 406.407,443.887C410.84,443.887 415.129,440.692 417.968,435.564C418.05,435.415 418.093,435.249 418.093,435.079L418.093,409.208Z" style="fill:rgb(248,172,58);"/>
<path d="M418.093,435.079L416.753,433.74C416.753,433.909 416.71,434.076 416.628,434.224C413.855,439.232 409.699,442.397 405.377,442.542L405.41,442.965C405.451,443.485 405.885,443.887 406.407,443.887C410.84,443.887 415.129,440.692 417.968,435.564C418.05,435.415 418.093,435.249 418.093,435.079Z" style="fill:rgb(243,148,4);"/>
<path d="M427.424,401.933C427.775,401.769 428,401.416 428,401.028L428,396C428,395.448 427.552,395 427,395L422.991,395C422.439,395 421.991,395.448 421.991,396L421.991,402.904C421.991,403.246 422.166,403.564 422.454,403.748C422.743,403.931 423.105,403.954 423.415,403.81L427.424,401.933Z" style="fill:rgb(255,252,92);"/>
<path d="M427,395L425.666,395C426.218,395 426.666,395.448 426.666,396L426.666,401.028C426.666,401.416 426.441,401.769 426.089,401.933L422.359,403.679C422.389,403.704 422.421,403.726 422.454,403.748C422.743,403.931 423.105,403.954 423.415,403.81L427.424,401.933C427.775,401.769 428,401.416 428,401.028L428,396C428,395.448 427.552,395 427,395Z" style="fill:rgb(254,250,34);"/>
<path d="M423.224,406.527C423.674,406.419 423.991,406.017 423.991,405.554L423.991,398.895C423.991,398.343 423.543,397.895 422.991,397.895L418.982,397.895C418.43,397.895 417.982,398.343 417.982,398.895L417.982,406.515C417.982,406.821 418.122,407.111 418.363,407.3C418.603,407.49 418.917,407.559 419.215,407.488L423.224,406.527Z" style="fill:rgb(255,252,92);"/>
<path d="M420.537,397.895C421.09,397.895 421.537,398.343 421.537,398.895L421.537,405.554C421.537,406.017 421.22,406.419 420.77,406.527L418.203,407.142C418.25,407.2 418.303,407.253 418.363,407.3C418.603,407.49 418.917,407.559 419.215,407.488L423.224,406.527C423.674,406.419 423.991,406.017 423.991,405.554L423.991,398.895C423.991,398.343 423.543,397.895 422.991,397.895L420.537,397.895Z" style="fill:rgb(254,250,34);"/>
<path d="M432.101,400.504C432.123,400.226 432.028,399.951 431.838,399.747C431.649,399.542 431.383,399.426 431.104,399.426C421.065,399.426 412.804,409.337 412.804,421.656C412.804,428.966 415.334,435.442 418.973,439.46C421.515,442.267 424.605,443.887 427.778,443.887C428.3,443.887 428.735,443.485 428.775,442.965L432.101,400.504Z" style="fill:rgb(248,172,58);"/>
<path d="M415.729,409.609C413.881,413.075 412.804,417.209 412.804,421.656C412.804,428.966 415.334,435.442 418.973,439.46C421.515,442.267 424.605,443.887 427.778,443.887C428.3,443.887 428.735,443.485 428.775,442.965L428.891,441.491L428.889,441.491C425.715,441.491 422.625,439.871 420.083,437.064C416.444,433.046 413.915,426.57 413.915,419.261C413.915,415.798 414.568,412.525 415.729,409.609Z" style="fill:rgb(243,148,4);"/>
<g transform="matrix(0.968806,0,0,1.18763,108.371,-93.8722)">
<ellipse cx="309.35" cy="421.443" rx="1.29" ry="1.053" style="fill:rgb(243,148,4);"/>
</g>
<g transform="matrix(0.968806,0,0,1.18763,126.01,-92.7159)">
<ellipse cx="309.35" cy="421.443" rx="1.29" ry="1.053" style="fill:rgb(243,148,4);"/>
</g>
<g transform="matrix(0.968806,0,0,1.18763,124.001,-78.614)">
<ellipse cx="309.35" cy="421.443" rx="1.29" ry="1.053" style="fill:rgb(243,148,4);"/>
</g>
<g transform="matrix(0.968806,0,0,1.18763,109.637,-74.4455)">
<ellipse cx="309.35" cy="421.443" rx="1.29" ry="1.053" style="fill:rgb(243,148,4);"/>
</g>
<path d="M421.667,412.012L419.472,414.791C419.13,415.225 419.203,415.854 419.637,416.196C420.07,416.538 420.699,416.464 421.041,416.031L423.236,413.252C423.578,412.819 423.504,412.19 423.071,411.847C422.638,411.505 422.009,411.579 421.667,412.012Z" style="fill:rgb(243,148,4);"/>
<g transform="matrix(1,0,0,1,0,6.92383)">
<path d="M422,422.374L422,426.615C422,427.167 422.448,427.615 423,427.615C423.552,427.615 424,427.167 424,426.615L424,422.374C424,421.822 423.552,421.374 423,421.374C422.448,421.374 422,421.822 422,422.374Z" style="fill:rgb(243,148,4);"/>
</g>
<path d="M408.911,413.909L408.452,417.955C408.39,418.503 408.784,418.999 409.333,419.061C409.881,419.124 410.377,418.729 410.439,418.181L410.898,414.135C410.961,413.586 410.566,413.09 410.018,413.028C409.469,412.966 408.973,413.361 408.911,413.909Z" style="fill:rgb(243,148,4);"/>
<g transform="matrix(1,0,0,1,1.44548,9.92723)">
<path d="M408.765,427.755L410.964,425.139C411.319,424.717 411.265,424.085 410.842,423.73C410.42,423.375 409.788,423.43 409.433,423.852L407.235,426.468C406.879,426.89 406.934,427.521 407.357,427.877C407.779,428.232 408.41,428.177 408.765,427.755Z" style="fill:rgb(243,148,4);"/>
</g>
</g>
</g>
</svg>