<?xml version="1.0" ?>
<!DOCTYPE svg  PUBLIC '-//W3C//DTD SVG 1.1//EN'  'http://www.w3.org/Graphics/SVG/1.1/DTD/svg11.dtd'>
<!-- Uploaded to: SVG Repo, www.svgrepo.com, Generator: SVG Repo Mixer Tools -->
<svg fill="#000000" width="800px" height="800px" viewBox="0 0 64 64" style="fill-rule:evenodd;clip-rule:evenodd;stroke-linejoin:round;stroke-miterlimit:2;" version="1.1" xml:space="preserve" xmlns="http://www.w3.org/2000/svg" xmlns:serif="http://www.serif.com/" xmlns:xlink="http://www.w3.org/1999/xlink">
<g transform="matrix(1,0,0,1,-96,-384)">
<g id="Icon">
<path d="M110.167,416.623C110.717,416.623 111.164,416.179 111.167,415.629L111.288,397.036C111.289,396.77 111.185,396.514 110.997,396.325C110.809,396.136 110.554,396.03 110.288,396.03C104.605,396.03 99.991,400.643 99.991,406.326C99.991,412.013 104.481,416.623 110.167,416.623Z" style="fill:rgb(240,104,45);"/>
<path d="M111.167,415.623C111.167,415.258 110.968,414.922 110.649,414.747C110.329,414.571 109.939,414.583 109.631,414.779L99.825,421.014C99.528,421.203 99.352,421.534 99.362,421.887C99.372,422.239 99.567,422.56 99.874,422.731L109.68,428.198C109.99,428.371 110.368,428.367 110.674,428.187C110.979,428.007 111.167,427.679 111.167,427.325L111.167,415.623Z" style="fill:rgb(143,244,103);"/>
<path d="M146.624,396.074C146.344,396.048 146.066,396.141 145.858,396.33C145.65,396.52 145.532,396.788 145.532,397.069L145.532,415.583C145.532,415.865 145.65,416.133 145.858,416.322C146.066,416.512 146.344,416.605 146.624,416.579C151.859,416.096 155.965,411.687 155.965,406.326C155.965,400.966 151.859,396.557 146.624,396.074Z" style="fill:rgb(240,104,45);"/>
<path d="M151.554,397.879C152.72,399.548 153.403,401.577 153.403,403.765C153.403,408.612 150.046,412.682 145.532,413.773L145.532,415.583C145.532,415.865 145.65,416.133 145.858,416.322C146.066,416.512 146.344,416.605 146.624,416.579C151.859,416.096 155.965,411.687 155.965,406.326C155.965,402.831 154.22,399.741 151.554,397.879Z" style="fill:rgb(229,79,13);"/>
<path d="M145.532,427.373C145.532,427.731 145.723,428.062 146.034,428.24C146.344,428.419 146.726,428.418 147.035,428.238L156.503,422.722C156.802,422.548 156.99,422.232 157,421.887C157.01,421.541 156.84,421.215 156.552,421.024L147.084,414.75C146.777,414.546 146.383,414.528 146.059,414.702C145.735,414.877 145.532,415.215 145.532,415.583L145.532,427.373Z" style="fill:rgb(143,244,103);"/>
<path d="M145.894,414.813L153.418,419.799C153.706,419.99 153.875,420.316 153.865,420.662C153.855,421.007 153.667,421.323 153.369,421.497L145.532,426.062L145.532,427.373C145.532,427.731 145.723,428.062 146.034,428.24C146.344,428.419 146.726,428.418 147.035,428.238L156.503,422.722C156.802,422.548 156.99,422.232 157,421.887C157.01,421.541 156.84,421.215 156.552,421.024L147.084,414.75C146.777,414.546 146.383,414.528 146.059,414.702C146,414.734 145.945,414.771 145.894,414.813Z" style="fill:rgb(117,241,68);"/>
<path d="M147.532,426.841L147.532,394.923C147.532,393.26 146.184,391.912 144.521,391.912C138.162,391.912 118.537,391.912 112.178,391.912C110.515,391.912 109.167,393.26 109.167,394.923L109.167,426.841C107.361,428.16 106.177,430.332 106.177,432.791L106.177,432.796C106.177,436.832 109.36,440.088 113.265,440.088L143.434,440.088C147.339,440.088 150.522,436.832 150.522,432.796L150.522,432.791C150.522,430.332 149.338,428.16 147.532,426.841Z" style="fill:rgb(248,172,58);"/>
<path d="M110.659,392.323L136.635,392.323C138.298,392.323 139.646,393.671 139.646,395.334L139.646,427.252C141.453,428.571 142.636,430.743 142.636,433.202L142.636,433.207C142.636,437.243 139.454,438.038 135.549,438.038L108.339,438.038C109.616,439.308 111.354,440.088 113.265,440.088L143.434,440.088C147.339,440.088 150.522,436.832 150.522,432.796L150.522,432.791C150.522,430.332 149.338,428.16 147.532,426.841L147.532,394.923C147.532,393.26 146.184,391.912 144.521,391.912C138.162,391.912 118.537,391.912 112.178,391.912C111.624,391.912 111.105,392.062 110.659,392.323Z" style="fill:rgb(243,148,4);"/>
<path d="M130.78,417.988C128.543,417.988 126.71,419.849 126.71,422.161C126.71,424.474 128.543,426.335 130.78,426.335C133.018,426.335 134.85,424.474 134.85,422.161C134.85,419.849 133.018,417.988 130.78,417.988Z" style="fill:rgb(243,150,9);"/>
<path d="M120.157,406.518C117.92,406.518 116.087,408.379 116.087,410.692C116.087,413.004 117.92,414.865 120.157,414.865C122.394,414.865 124.227,413.004 124.227,410.692C124.227,408.379 122.394,406.518 120.157,406.518Z" style="fill:rgb(243,150,9);"/>
<g transform="matrix(1.2534,0,0,1.2534,-30.9946,-93.0395)">
<circle cx="133.804" cy="420.08" r="1.445" style="fill:rgb(243,150,9);"/>
</g>
<g transform="matrix(1.2534,0,0,1.2534,-46.6784,-98.2417)">
<circle cx="133.804" cy="420.08" r="1.445" style="fill:rgb(243,150,9);"/>
</g>
<g transform="matrix(1.2534,0,0,1.2534,-32.0489,-126.232)">
<circle cx="133.804" cy="420.08" r="1.445" style="fill:rgb(243,150,9);"/>
</g>
<g transform="matrix(1.2534,0,0,1.2534,-46.6784,-125.906)">
<circle cx="133.804" cy="420.08" r="1.445" style="fill:rgb(243,150,9);"/>
</g>
</g>
</g>
</svg>