<?xml version="1.0" ?>
<!DOCTYPE svg  PUBLIC '-//W3C//DTD SVG 1.1//EN'  'http://www.w3.org/Graphics/SVG/1.1/DTD/svg11.dtd'>
<!-- Uploaded to: SVG Repo, www.svgrepo.com, Generator: SVG Repo Mixer Tools -->
<svg fill="#000000" width="800px" height="800px" viewBox="0 0 64 64" style="fill-rule:evenodd;clip-rule:evenodd;stroke-linejoin:round;stroke-miterlimit:2;" version="1.1" xml:space="preserve" xmlns="http://www.w3.org/2000/svg" xmlns:serif="http://www.serif.com/" xmlns:xlink="http://www.w3.org/1999/xlink">
<g transform="matrix(1,0,0,1,-96,-192)">
<g id="Icon">
<path d="M137.352,242.754C135.142,243.115 133.453,245.035 133.453,247.346C133.453,249.915 135.538,252 138.107,252C139.06,252 139.946,251.713 140.684,251.221C141.422,251.713 142.308,252 143.261,252C145.829,252 147.915,249.915 147.915,247.346C147.915,245.018 146.202,243.087 143.968,242.746L143.968,235.605C143.968,235.052 143.521,234.605 142.968,234.605L138.352,234.605C137.8,234.605 137.352,235.052 137.352,235.605L137.352,242.754Z" style="fill:rgb(245,240,229);"/>
<path d="M137.37,235.412L141.23,235.412C141.782,235.412 142.23,235.86 142.23,236.412L142.23,243.553C144.463,243.895 146.176,245.826 146.176,248.154C146.176,249.678 145.441,251.033 144.307,251.882C146.373,251.406 147.915,249.555 147.915,247.346C147.915,245.018 146.202,243.087 143.968,242.746L143.968,235.605C143.968,235.052 143.521,234.605 142.968,234.605L138.352,234.605C137.865,234.605 137.46,234.952 137.37,235.412Z" style="fill:rgb(234,222,199);"/>
<path d="M112.065,235.141C109.855,235.502 108.166,237.422 108.166,239.733C108.166,242.302 110.251,244.387 112.82,244.387C113.773,244.387 114.659,244.1 115.397,243.608C116.135,244.1 117.021,244.387 117.974,244.387C120.542,244.387 122.628,242.302 122.628,239.733C122.628,237.405 120.915,235.474 118.681,235.133L118.681,227.992C118.681,227.439 118.234,226.992 117.681,226.992L113.065,226.992C112.513,226.992 112.065,227.439 112.065,227.992L112.065,235.141Z" style="fill:rgb(245,240,229);"/>
<path d="M112.067,227.933L116.06,227.933C116.612,227.933 117.06,228.381 117.06,228.933L117.06,236.075C119.294,236.416 121.006,238.347 121.006,240.675C121.006,242.055 120.405,243.295 119.449,244.148C121.295,243.53 122.628,241.786 122.628,239.733C122.628,237.405 120.915,235.474 118.681,235.133L118.681,227.992C118.681,227.439 118.234,226.992 117.681,226.992L113.065,226.992C112.532,226.992 112.097,227.408 112.067,227.933Z" style="fill:rgb(234,222,199);"/>
<path d="M143.794,236.605C144.209,236.605 144.58,236.349 144.728,235.962C146.941,230.179 149.153,224.397 151.365,218.614C152.688,215.157 152.224,211.269 150.126,208.219C148.027,205.169 144.562,203.347 140.859,203.347L140.508,203.347C136.806,203.347 133.341,205.169 131.242,208.219C129.143,211.269 128.68,215.157 130.003,218.614C133.194,226.958 136.639,235.962 136.639,235.962C136.787,236.349 137.159,236.605 137.573,236.605L143.794,236.605Z" style="fill:rgb(248,172,58);"/>
<path d="M139.659,203.38C143.037,203.635 146.139,205.404 148.076,208.219C150.175,211.269 150.638,215.157 149.315,218.614C147.103,224.397 144.891,230.179 142.679,235.962C142.531,236.349 142.159,236.605 141.745,236.605L143.794,236.605C144.209,236.605 144.58,236.349 144.728,235.962C146.941,230.179 149.153,224.397 151.365,218.614C152.688,215.157 152.224,211.269 150.126,208.219C148.027,205.169 144.562,203.347 140.859,203.347L140.508,203.347C140.223,203.347 139.94,203.358 139.659,203.38Z" style="fill:rgb(243,148,4);"/>
<path d="M118.507,228.992C118.922,228.992 119.293,228.736 119.441,228.349C121.654,222.566 123.866,216.784 126.078,211.001C127.401,207.544 126.937,203.656 124.839,200.606C122.74,197.556 119.275,195.734 115.573,195.734L115.221,195.734C111.519,195.734 108.054,197.556 105.955,200.606C103.856,203.656 103.393,207.544 104.716,211.001C107.908,219.345 111.352,228.349 111.352,228.349C111.5,228.736 111.872,228.992 112.286,228.992L118.507,228.992Z" style="fill:rgb(248,172,58);"/>
<path d="M114.692,195.747C118.194,195.911 121.431,197.702 123.43,200.606C125.528,203.656 125.992,207.544 124.669,211.001C122.457,216.784 120.245,222.566 118.032,228.349C117.884,228.736 117.513,228.992 117.098,228.992L118.507,228.992C118.922,228.992 119.293,228.736 119.441,228.349C121.654,222.566 123.866,216.784 126.078,211.001C127.401,207.544 126.937,203.656 124.839,200.606C122.74,197.556 119.275,195.734 115.573,195.734L115.221,195.734C115.044,195.734 114.868,195.739 114.692,195.747Z" style="fill:rgb(243,148,4);"/>
<g transform="matrix(0.931986,0,0,0.931986,37.204,16.8505)">
<circle cx="110.659" cy="207.439" r="1.341" style="fill:rgb(243,148,4);"/>
</g>
<g transform="matrix(0.931986,0,0,0.931986,34.2084,23.9325)">
<circle cx="110.659" cy="207.439" r="1.341" style="fill:rgb(243,148,4);"/>
</g>
<g transform="matrix(0.931986,0,0,0.931986,41.7937,22.2216)">
<circle cx="110.659" cy="207.439" r="1.341" style="fill:rgb(243,148,4);"/>
</g>
<g transform="matrix(0.931986,0,0,0.931986,40.5149,28.7955)">
<circle cx="110.659" cy="207.439" r="1.341" style="fill:rgb(243,148,4);"/>
</g>
<g transform="matrix(0.931986,0,0,0.931986,37.204,34.3431)">
<circle cx="110.659" cy="207.439" r="1.341" style="fill:rgb(243,148,4);"/>
</g>
<g transform="matrix(0.931986,0,0,0.931986,13.5144,8.73424)">
<circle cx="110.659" cy="207.439" r="1.341" style="fill:rgb(243,148,4);"/>
</g>
<g transform="matrix(0.931986,0,0,0.931986,16.7536,16.9812)">
<circle cx="110.659" cy="207.439" r="1.341" style="fill:rgb(243,148,4);"/>
</g>
<g transform="matrix(0.931986,0,0,0.931986,7.75358,14.183)">
<circle cx="110.659" cy="207.439" r="1.341" style="fill:rgb(243,148,4);"/>
</g>
<g transform="matrix(0.931986,0,0,0.931986,12.2644,25.6186)">
<circle cx="110.659" cy="207.439" r="1.341" style="fill:rgb(243,148,4);"/>
</g>
</g>
</g>
</svg>