<svg width="32" height="32" viewBox="0 0 32 32" fill="none" xmlns="http://www.w3.org/2000/svg">
<path d="M24.4763 16.9713C24.5198 21.6713 28.5998 23.2355 28.6448 23.2555C28.6103 23.3655 27.993 25.4845 26.4955 27.6728C25.201 29.5648 23.8573 31.4498 21.741 31.4893C19.6615 31.5273 18.9928 30.2558 16.615 30.2558C14.238 30.2558 13.4953 31.4498 11.5265 31.5273C9.48351 31.6048 7.92776 29.481 6.62251 27.5963C3.95551 23.7403 1.91726 16.7 4.65401 11.9478C6.01351 9.58776 8.44351 8.09351 11.0808 8.05501C13.0868 8.01676 14.9803 9.40451 16.2065 9.40451C17.432 9.40451 19.733 7.73551 22.152 7.98051C23.1648 8.02276 26.0073 8.38951 27.8325 11.0615C27.6858 11.1528 24.441 13.0418 24.4763 16.9713ZM20.568 5.42976C21.6525 4.11701 22.3825 2.28901 22.1835 0.470764C20.62 0.533514 18.7295 1.51251 17.6083 2.82476C16.6033 3.98651 15.7233 5.84651 15.9605 7.62876C17.7033 7.76376 19.4833 6.74326 20.568 5.42976Z" fill="white"/>
</svg>
